<svg width="32" height="32" viewBox="0 0 32 32" fill="none" xmlns="http://www.w3.org/2000/svg">
  <!-- Vodex.ai Favicon -->
  <g>
    <!-- V letter -->
    <path d="M6 6L16 26L26 6H22L16 20L10 6H6Z" fill="#6366F1"/>
    
    <!-- AI brain icon -->
    <circle cx="16" cy="16" r="6" fill="#8B5CF6" opacity="0.8"/>
    <path d="M13 16C13 14.34 14.34 13 16 13C17.66 13 19 14.34 19 16C19 17.66 17.66 19 16 19C14.34 19 13 17.66 13 16Z" fill="white"/>
    <circle cx="14.5" cy="15" r="0.8" fill="#8B5CF6"/>
    <circle cx="17.5" cy="15" r="0.8" fill="#8B5CF6"/>
    <path d="M14.5 17.5C14.5 17.5 15 17.2 16 17.2C17 17.2 17.5 17.5 17.5 17.5" stroke="white" stroke-width="1" stroke-linecap="round"/>
  </g>
</svg>
