<svg width="120" height="40" viewBox="0 0 120 40" fill="none" xmlns="http://www.w3.org/2000/svg">
  <!-- Vodex.ai Logo -->
  <g>
    <!-- V letter -->
    <path d="M8 8L20 32L32 8H28L20 26L12 8H8Z" fill="#6366F1"/>
    
    <!-- AI brain icon -->
    <circle cx="45" cy="20" r="8" fill="#8B5CF6" opacity="0.8"/>
    <path d="M41 20C41 17.24 43.24 15 46 15C48.76 15 51 17.24 51 20C51 22.76 48.76 25 46 25C43.24 25 41 22.76 41 20Z" fill="white"/>
    <circle cx="44" cy="18" r="1" fill="#8B5CF6"/>
    <circle cx="48" cy="18" r="1" fill="#8B5CF6"/>
    <path d="M44 22C44 22 45 21.5 46 21.5C47 21.5 48 22 48 22" stroke="white" stroke-width="1.5" stroke-linecap="round"/>
    
    <!-- Text -->
    <text x="60" y="26" font-family="Arial, sans-serif" font-size="16" font-weight="600" fill="#374151">Vodex.ai</text>
  </g>
</svg>
