<svg width="166" height="45" viewBox="0 0 166 45" fill="none" xmlns="http://www.w3.org/2000/svg">
<path d="M22.9693 0.02112C21.8884 0.214347 21.4989 1.53395 22.3217 2.24559C22.5992 2.49066 22.8183 2.57549 23.203 2.5802C23.8067 2.58963 24.3179 2.2126 24.4932 1.63292C24.7659 0.732761 23.9333 -0.148543 22.9693 0.02112Z" fill="#FF4D00"/>
<path d="M16.2004 1.05923C15.7865 1.13464 15.4408 1.38913 15.2266 1.77559C15.0951 2.00652 15.1049 2.66632 15.2461 2.9161C15.5918 3.53819 16.3854 3.79269 17.0281 3.48635C17.5198 3.25542 17.7633 2.86897 17.7681 2.32699C17.7681 2.02066 17.7487 1.94054 17.6269 1.72375C17.3348 1.21476 16.77 0.950837 16.2004 1.05923Z" fill="#FF4D00"/>
<path d="M29.5862 1.07354C29.2794 1.17251 29.0165 1.36574 28.8461 1.61552C28.1693 2.64292 29.182 3.90126 30.3992 3.54779C30.6719 3.46767 31.0468 3.13777 31.188 2.855C31.4022 2.42613 31.3097 1.83703 30.9689 1.44586C30.6816 1.11596 30.0195 0.936871 29.5862 1.07354Z" fill="#FF4D00"/>
<path d="M9.99377 4.0893C9.7552 4.15057 9.6919 4.18827 9.42412 4.4192C8.88368 4.8952 8.89828 5.80949 9.4582 6.29492C9.74059 6.53999 9.96943 6.62953 10.3443 6.62953C11.1039 6.63424 11.6784 6.07812 11.6784 5.34292C11.6784 4.48518 10.8361 3.85837 9.99377 4.0893Z" fill="#FF4D00"/>
<path d="M35.7108 4.06529C34.776 4.34335 34.4255 5.46501 35.0487 6.17194C35.4041 6.57724 36.076 6.72805 36.5824 6.52069C37.0449 6.32275 37.4149 5.79491 37.4149 5.31891C37.4149 4.8005 36.9913 4.23967 36.4899 4.09828C36.2123 4.01816 35.9153 4.00874 35.7108 4.06529Z" fill="#FF4D00"/>
<path d="M22.9539 6.68872C22.5108 6.84425 22.2187 7.09874 21.9752 7.55589L21.8584 7.76797V37.1762L21.9704 37.3977C22.1457 37.7323 22.4378 38.0292 22.7494 38.1753C22.9928 38.2884 23.0853 38.3073 23.4651 38.3073C23.8449 38.3073 23.9374 38.2884 24.1614 38.1753C24.6629 37.9208 24.9696 37.5014 25.0524 36.9547C25.0767 36.7803 25.0962 30.7384 25.0962 22.4721C25.0962 14.2057 25.0767 8.16385 25.0524 7.98947C24.9647 7.43335 24.6336 6.99035 24.1273 6.76413C23.7865 6.61332 23.2704 6.58033 22.9539 6.68872Z" fill="#FF4D00"/>
<path d="M40.5648 8.75626C39.8734 8.94006 39.44 9.63285 39.6056 10.2926C39.7517 10.8912 40.2775 11.2918 40.9104 11.2918C42.1277 11.2918 42.7022 9.84021 41.7966 9.05317C41.446 8.74212 41.0029 8.63844 40.5648 8.75626Z" fill="#FF4D00"/>
<path d="M5.13322 8.77601C4.53922 8.9551 4.10589 9.57248 4.17405 10.1522C4.28604 11.0759 5.31823 11.5943 6.16055 11.156C6.95904 10.7318 7.08076 9.61961 6.38938 9.04465C6.06804 8.77601 5.52759 8.6629 5.13322 8.77601Z" fill="#FF4D00"/>
<path d="M16.3953 11.4578C15.9132 11.6228 15.6114 11.8961 15.3923 12.3533L15.2852 12.5748V32.3688L15.3971 32.5997C15.6552 33.1511 16.1616 33.5046 16.7556 33.5564C17.5346 33.6271 18.2746 33.104 18.4548 32.3593C18.5083 32.1331 18.5229 30.4082 18.5229 22.4718C18.5229 11.9527 18.5375 12.5371 18.2454 12.1082C17.8364 11.505 17.0525 11.2316 16.3953 11.4578Z" fill="#FF4D00"/>
<path d="M29.756 14.5843C29.2642 14.6597 28.8163 14.9755 28.568 15.4374L28.4316 15.6871V29.2602L28.6069 29.5665C29.1425 30.5091 30.4327 30.6693 31.1923 29.8917C31.3286 29.7503 31.4601 29.5477 31.5234 29.3968C31.6207 29.1376 31.6207 29.0999 31.611 22.4124L31.5964 15.6871L31.4747 15.4515C31.1631 14.8341 30.4619 14.4807 29.756 14.5843Z" fill="#FF4D00"/>
<path d="M43.6862 14.6424C43.0045 14.8262 42.5663 15.5048 42.7173 16.1505C42.9997 17.3758 44.694 17.5691 45.2345 16.438C45.4779 15.9384 45.3465 15.3116 44.9131 14.9393C44.8011 14.8356 44.6356 14.7272 44.5528 14.6942C44.3094 14.5953 43.9394 14.5717 43.6862 14.6424Z" fill="#FF4D00"/>
<path d="M2.01297 14.6883C1.54069 14.8627 1.24369 15.1596 1.11223 15.6073C0.980769 16.0362 1.09762 16.4604 1.43844 16.8185C1.94967 17.3558 2.85528 17.3558 3.39085 16.8091C3.86313 16.3284 3.82905 15.3953 3.32268 14.9805C2.94778 14.6742 2.39274 14.5517 2.01297 14.6883Z" fill="#FF4D00"/>
<path d="M9.97334 16.1742C9.46698 16.3015 8.96061 16.7351 8.79994 17.1781C8.71717 17.4137 8.7123 17.7012 8.7123 22.4706C8.7123 28.2156 8.68309 27.7867 9.13103 28.2674C9.48645 28.6397 9.81753 28.7858 10.319 28.7858C10.6404 28.7858 10.7572 28.7623 10.9812 28.6633C11.3317 28.5031 11.6336 28.2109 11.7992 27.8716L11.9257 27.6076V17.3336L11.7992 17.0744C11.6385 16.7492 11.3171 16.4334 10.9909 16.2873C10.7231 16.1648 10.2216 16.113 9.97334 16.1742Z" fill="#FF4D00"/>
<path d="M36.0379 19.4103C35.5949 19.5705 35.2054 19.9617 35.0544 20.4047C34.9863 20.6074 34.9814 20.8854 34.9911 22.5679L35.0057 24.5002L35.1226 24.7358C35.2784 25.0327 35.5754 25.3202 35.8821 25.471C36.0866 25.5653 36.1937 25.5841 36.5881 25.5841C36.9825 25.5841 37.0896 25.5653 37.2795 25.4757C37.5813 25.3296 37.8686 25.0563 38.0342 24.75L38.1705 24.5002V20.4942L38.0439 20.235C37.8783 19.9004 37.6106 19.6412 37.2454 19.4763C37.002 19.3632 36.8948 19.3396 36.5881 19.3443C36.3885 19.3443 36.1402 19.3773 36.0379 19.4103Z" fill="#FF4D00"/>
<path d="M0.995576 21.2385C0.167871 21.4647 -0.231373 22.3036 0.13866 23.0388C0.761873 24.2642 2.67533 23.84 2.67046 22.4733C2.66559 21.6297 1.82815 21.0123 0.995576 21.2385Z" fill="#FF4D00"/>
<path d="M44.6745 21.2654C44.3386 21.3785 44.1925 21.4869 44.0026 21.7556C43.618 22.307 43.7153 23.0233 44.2363 23.4522C45.0981 24.1686 46.437 23.5794 46.437 22.4814C46.437 21.9677 46.179 21.5576 45.7262 21.3456C45.3756 21.1806 45.0056 21.1523 44.6745 21.2654Z" fill="#FF4D00"/>
<path d="M2.17787 27.7788C1.72994 27.859 1.33069 28.1794 1.16515 28.5895C1.0629 28.8581 1.08238 29.3671 1.20897 29.6169C1.53031 30.2625 2.35315 30.5311 3.01531 30.2012C3.361 30.0316 3.58984 29.7582 3.70182 29.3906C3.96961 28.4952 3.13703 27.6092 2.17787 27.7788Z" fill="#FF4D00"/>
<path d="M43.5687 27.8026C42.853 28.0477 42.5025 28.9196 42.8433 29.5935C43.335 30.5644 44.8054 30.5408 45.2582 29.5558C45.7354 28.5096 44.6837 27.4209 43.5687 27.8026Z" fill="#FF4D00"/>
<path d="M40.516 33.6865C39.6104 34.0023 39.3037 35.0721 39.922 35.779C40.2726 36.1843 40.9347 36.3304 41.446 36.1183C41.9767 35.8968 42.3321 35.3124 42.2639 34.7846C42.152 33.9645 41.2853 33.4226 40.516 33.6865Z" fill="#FF4D00"/>
<path d="M4.98793 33.7649C4.13588 34.1372 3.93626 35.2353 4.6033 35.8763C4.86134 36.1261 5.1486 36.2345 5.54785 36.2297C6.07856 36.225 6.48754 35.98 6.71151 35.537C6.99877 34.9761 6.91113 34.4813 6.45833 34.0477C6.27818 33.8733 6.11264 33.7602 5.98118 33.7225C5.67444 33.6377 5.24111 33.6518 4.98793 33.7649Z" fill="#FF4D00"/>
<path d="M35.8223 38.3361C35.0774 38.4681 34.5905 39.2363 34.8047 39.9479C34.9751 40.5182 35.4766 40.8905 36.0657 40.8952C36.4601 40.8952 36.6987 40.8104 36.9665 40.5747C37.5605 40.0516 37.5702 39.1609 36.9908 38.6566C36.6841 38.3879 36.2313 38.2654 35.8223 38.3361Z" fill="#FF4D00"/>
<path d="M10.0031 38.3736C9.45289 38.5432 9.0293 39.0899 9.0293 39.6272C9.0293 40.0655 9.36038 40.5792 9.7791 40.796C9.9349 40.8761 10.0615 40.8997 10.3682 40.8997C10.8064 40.8997 11.0353 40.8101 11.3225 40.5368C11.8338 40.0372 11.8338 39.2077 11.3177 38.7082C11.2203 38.6139 11.0547 38.5008 10.9525 38.449C10.7431 38.35 10.2076 38.3076 10.0031 38.3736Z" fill="#FF4D00"/>
<path d="M29.7229 41.3528C29.2603 41.4424 28.827 41.843 28.6955 42.3048C28.569 42.762 28.7832 43.3511 29.1776 43.6433C29.7229 44.0439 30.4289 44.0062 30.9304 43.5443C31.2176 43.2851 31.3053 43.073 31.3053 42.6206C31.3053 42.2718 31.2906 42.1917 31.1738 42.0079C31.0034 41.7299 30.8184 41.5602 30.5506 41.4518C30.2682 41.3293 29.9955 41.301 29.7229 41.3528Z" fill="#FF4D00"/>
<path d="M15.9185 41.4624C15.6556 41.5803 15.3391 41.8866 15.2369 42.1222C14.974 42.7349 15.2272 43.4371 15.8455 43.7717C16.5077 44.1299 17.3938 43.833 17.7103 43.1496C17.9148 42.7019 17.7979 42.0987 17.4376 41.7311C17.0676 41.354 16.4152 41.2362 15.9185 41.4624Z" fill="#FF4D00"/>
<path d="M22.8966 42.4032C22.4098 42.5304 22.0397 42.9169 21.9277 43.4023C21.7719 44.0809 22.254 44.7831 22.9794 44.9292C23.4079 45.0141 23.7925 44.9104 24.1333 44.6088C24.7079 44.1045 24.7079 43.2091 24.1333 42.7048C23.7828 42.3984 23.3251 42.2853 22.8966 42.4032Z" fill="#FF4D00"/>
<path d="M89.0024 10.8146C87.498 10.956 86.1395 11.3189 84.9369 11.9033C82.6194 13.025 81.1782 14.7829 80.7449 17.0262C80.6572 17.4692 80.6523 17.8085 80.6523 22.446V27.3945L80.7643 27.8893C81.1344 29.5058 81.9182 30.7642 83.1988 31.801C84.5718 32.9132 86.3586 33.6343 88.4912 33.9312C89.1339 34.0207 90.838 34.0066 91.5391 33.9076C94.032 33.5495 96.2473 32.4749 97.5862 30.9762C98.5843 29.8593 99.1345 28.5915 99.2757 27.0693C99.3147 26.6781 99.3244 25.071 99.3098 21.9982C99.2903 17.0497 99.3001 17.2383 98.9787 16.2344C98.4626 14.6132 97.3428 13.27 95.6971 12.2898C94.4555 11.5498 92.6297 10.9796 91.0035 10.8288C90.5361 10.7864 89.3919 10.7769 89.0024 10.8146ZM91.2178 15.584C92.25 15.8433 93.0777 16.4512 93.472 17.2383C93.8664 18.0206 93.8469 17.7378 93.8469 22.3988C93.8469 26.2068 93.8421 26.5697 93.7593 26.8525C93.3211 28.4407 91.9189 29.3503 89.9226 29.3503C87.9264 29.3503 86.5875 28.4313 86.1444 26.8996C86.0616 26.6121 86.0568 26.3105 86.0568 22.3988C86.0568 18.4872 86.0616 18.1855 86.1444 17.8981C86.5096 16.6303 87.4785 15.8197 88.983 15.5181C89.4796 15.4191 90.7065 15.4521 91.2178 15.584Z" fill="#FF4D00"/>
<path d="M57.0676 11.3603C56.8631 11.4593 56.7511 11.6525 56.756 11.8976C56.7609 12.0672 57.6957 14.6405 60.5635 22.3695C62.6571 28.0061 64.4342 32.7237 64.5121 32.8557C64.59 32.9876 64.7117 33.1526 64.7896 33.2233C65.0817 33.4966 65.0964 33.4966 67.3945 33.4966C68.7139 33.4966 69.5708 33.4777 69.6877 33.4448C69.9263 33.3835 70.1746 33.1384 70.3596 32.7755C70.6176 32.2854 78.0475 12.1049 78.0475 11.8976C78.0475 11.6619 77.9355 11.4593 77.7554 11.3697C77.6239 11.3038 77.3123 11.2991 75.3307 11.3085L73.0569 11.3226L72.8524 11.4357C72.424 11.6714 72.7258 10.856 69.454 20.5928C68.3828 23.774 67.4918 26.3613 67.4772 26.3425C67.4577 26.3236 66.3671 23.1283 65.0477 19.2402C63.7282 15.3521 62.5938 12.0625 62.5305 11.9259C62.3844 11.629 62.1507 11.4169 61.8975 11.3509C61.6151 11.2755 57.2186 11.2849 57.0676 11.3603Z" fill="#FF4D00"/>
<path d="M104.405 11.4595C104.244 11.5302 104.176 11.5962 104.103 11.7517C104.011 11.9496 104.006 12.157 104.006 22.464C104.006 32.771 104.011 32.9784 104.098 33.1669C104.167 33.313 104.244 33.3884 104.41 33.4638L104.629 33.5675L109.347 33.5486C114.464 33.5345 114.289 33.5392 115.511 33.2612C118.866 32.4835 121.232 30.4947 121.943 27.8555C122.172 26.9931 122.176 26.8941 122.201 23.0814C122.23 18.3968 122.191 17.737 121.806 16.6248C120.964 14.1977 118.539 12.3314 115.321 11.6292C114.167 11.3747 113.943 11.3652 109.094 11.3652C104.761 11.3652 104.61 11.3699 104.405 11.4595ZM114.06 16.1394C115.194 16.4551 115.939 16.9971 116.363 17.8171C116.743 18.5523 116.738 18.4722 116.738 22.5111C116.738 26.0646 116.738 26.0976 116.631 26.4605C116.441 27.1015 116.251 27.4172 115.793 27.8602C115.321 28.3174 114.854 28.5719 114.157 28.7604C113.787 28.8641 113.671 28.8688 111.592 28.8876L109.41 28.9018V16.0262L111.592 16.0404C113.466 16.0592 113.807 16.0734 114.06 16.1394Z" fill="#FF4D00"/>
<path d="M127.55 11.3515C127.262 11.3986 127.087 11.507 126.97 11.7285C126.892 11.8746 126.888 12.0443 126.897 13.7126C126.912 15.4705 126.917 15.5412 127.014 15.6637C127.068 15.7344 127.175 15.8381 127.248 15.89L127.379 15.9889H143.758L143.933 15.8853C144.04 15.8193 144.143 15.7015 144.201 15.5789C144.289 15.3951 144.294 15.249 144.294 13.6561C144.294 12.0631 144.289 11.9265 144.196 11.7521C144.065 11.5023 143.909 11.4033 143.563 11.3468C143.203 11.2902 127.9 11.2949 127.55 11.3515Z" fill="#FF4D00"/>
<path d="M147.105 11.346C146.963 11.4025 146.798 11.6617 146.798 11.8267C146.798 11.8974 146.822 12.0105 146.847 12.0812C146.876 12.1519 148.322 14.4376 150.06 17.1663L153.225 22.1243L150.099 27.3273C148.38 30.188 146.944 32.6104 146.91 32.7093C146.827 32.9403 146.895 33.223 147.075 33.3833L147.202 33.4964H149.539C151.248 33.4964 151.93 33.4822 152.076 33.4398C152.382 33.3503 152.626 33.0675 153.064 32.2946C154.276 30.1644 156.37 26.6015 156.414 26.6015C156.443 26.6015 157.285 28.0295 158.288 29.7732C159.398 31.6961 160.192 33.0298 160.309 33.1523C160.63 33.4964 160.596 33.4917 163.245 33.4964H165.601L165.738 33.3644C165.898 33.2089 165.967 32.9356 165.898 32.7235C165.874 32.6434 164.447 30.2257 162.729 27.3508L159.603 22.1243L162.773 17.1334C164.516 14.3905 165.957 12.0812 165.981 12.0058C166.04 11.8078 165.957 11.5628 165.781 11.4214L165.631 11.2988H163.298C160.723 11.2988 160.762 11.2941 160.44 11.5957C160.168 11.8455 159.924 12.2084 158.171 14.9749C157.242 16.4406 156.463 17.6565 156.443 17.6753C156.419 17.6989 155.649 16.5395 154.729 15.1068C152.704 11.9445 152.582 11.7654 152.363 11.5769C152.027 11.2941 152.081 11.2988 149.539 11.3035C148.259 11.3035 147.163 11.3224 147.105 11.346Z" fill="#FF4D00"/>
<path d="M129.03 20.1681C128.884 20.2435 128.787 20.3378 128.718 20.465C128.621 20.6441 128.616 20.729 128.616 22.3973C128.616 24.0657 128.621 24.1505 128.718 24.3296C128.787 24.4568 128.884 24.5511 129.03 24.6218L129.244 24.7302H141.913L142.127 24.6218C142.283 24.5511 142.376 24.4615 142.444 24.3296C142.536 24.1505 142.541 24.0468 142.541 22.4209C142.541 20.5075 142.531 20.4368 142.234 20.2153L142.064 20.088L135.657 20.0739L129.249 20.0645L129.03 20.1681Z" fill="#FF4D00"/>
<path d="M127.521 28.8838C127.248 28.9356 127.082 29.0487 126.975 29.2608C126.897 29.4069 126.888 29.6001 126.888 31.1742C126.888 32.2959 126.907 32.9745 126.941 33.0594C127.019 33.262 127.219 33.4364 127.438 33.4929C127.589 33.5353 129.775 33.5448 135.7 33.5353C143.534 33.5212 143.763 33.5165 143.914 33.4317C143.997 33.3798 144.119 33.2526 144.182 33.1489C144.257 33.0201 144.294 32.3744 144.294 31.2119C144.294 29.5624 144.289 29.4587 144.196 29.2843C144.07 29.044 143.895 28.9215 143.602 28.8743C143.281 28.8225 127.793 28.8319 127.521 28.8838Z" fill="#FF4D00"/>
</svg>
